<mxfile host="65bd71144e">
    <diagram id="yMcxPHkWypi_6sqz0j0T" name="Page-1">
        <mxGraphModel dx="1425" dy="897" grid="1" gridSize="10" guides="1" tooltips="1" connect="1" arrows="1" fold="1" page="1" pageScale="1" pageWidth="850" pageHeight="1100" background="#ffffff" math="0" shadow="0">
            <root>
                <mxCell id="0"/>
                <mxCell id="1" parent="0"/>
                <mxCell id="2" value="App" style="rounded=0;whiteSpace=wrap;html=1;fillColor=#FFFFFF;fontStyle=1;verticalAlign=top;fontColor=#000000;fontSize=20;strokeColor=#000000;" vertex="1" parent="1">
                    <mxGeometry x="10" y="30" width="810" height="1050" as="geometry"/>
                </mxCell>
                <mxCell id="3" value="Header" style="rounded=0;whiteSpace=wrap;html=1;fillColor=#FFFFFF;fontStyle=1;verticalAlign=top;fontColor=#000000;fontSize=20;strokeColor=#000000;" vertex="1" parent="1">
                    <mxGeometry x="41.5" y="70" width="765" height="50" as="geometry"/>
                </mxCell>
                <mxCell id="13" value="&lt;font style=&quot;font-size: 20px&quot;&gt;&lt;b&gt;Post List&lt;/b&gt;&lt;/font&gt;" style="rounded=0;whiteSpace=wrap;html=1;fontSize=12;fontColor=#000000;strokeColor=#000000;fillColor=#FFFFFF;verticalAlign=top;" vertex="1" parent="1">
                    <mxGeometry x="35.25" y="132.5" width="780" height="907.5" as="geometry"/>
                </mxCell>
                <mxCell id="5" value="" style="edgeStyle=none;html=1;fontSize=20;fontColor=#000000;strokeColor=#000000;exitX=0;exitY=0.5;exitDx=0;exitDy=0;" edge="1" parent="1" source="12" target="4">
                    <mxGeometry relative="1" as="geometry"/>
                </mxCell>
                <mxCell id="12" value="Make New Post" style="rounded=1;whiteSpace=wrap;html=1;fontSize=12;fontColor=#000000;strokeColor=#000000;fillColor=#FFFFFF;verticalAlign=top;" vertex="1" parent="1">
                    <mxGeometry x="364" y="1000" width="120" height="30" as="geometry"/>
                </mxCell>
                <mxCell id="14" value="" style="group" vertex="1" connectable="0" parent="1">
                    <mxGeometry x="44" y="180" width="762.5" height="120" as="geometry"/>
                </mxCell>
                <mxCell id="6" value="Post" style="rounded=0;whiteSpace=wrap;html=1;fontSize=20;fontColor=#000000;strokeColor=#000000;fillColor=#FFFFFF;verticalAlign=top;fontStyle=1" vertex="1" parent="14">
                    <mxGeometry width="762.5" height="120" as="geometry"/>
                </mxCell>
                <mxCell id="7" value="Upvote" style="rounded=1;whiteSpace=wrap;html=1;fontSize=20;fontColor=#000000;strokeColor=#000000;fillColor=#FFFFFF;verticalAlign=top;" vertex="1" parent="14">
                    <mxGeometry x="538.75" y="80" width="100" height="30" as="geometry"/>
                </mxCell>
                <mxCell id="8" value="Downvote" style="rounded=1;whiteSpace=wrap;html=1;fontSize=20;fontColor=#000000;strokeColor=#000000;fillColor=#FFFFFF;verticalAlign=top;" vertex="1" parent="14">
                    <mxGeometry x="648.75" y="80" width="100" height="30" as="geometry"/>
                </mxCell>
                <mxCell id="9" value="&lt;h1 style=&quot;font-size: 12px;&quot;&gt;timestamp&lt;/h1&gt;" style="text;html=1;strokeColor=none;fillColor=none;spacing=5;spacingTop=-20;whiteSpace=wrap;overflow=hidden;rounded=0;fontSize=12;fontColor=#000000;verticalAlign=top;" vertex="1" parent="14">
                    <mxGeometry x="678.75" y="10" width="70" height="15" as="geometry"/>
                </mxCell>
                <mxCell id="10" value="&lt;h1 style=&quot;font-size: 12px&quot;&gt;votecount&lt;/h1&gt;" style="text;html=1;strokeColor=none;fillColor=none;spacing=5;spacingTop=-20;whiteSpace=wrap;overflow=hidden;rounded=0;fontSize=12;fontColor=#000000;verticalAlign=top;" vertex="1" parent="14">
                    <mxGeometry x="608.75" y="10" width="70" height="15" as="geometry"/>
                </mxCell>
                <mxCell id="15" value="&lt;font style=&quot;font-size: 20px&quot;&gt;&lt;b&gt;Post Control&lt;/b&gt;&lt;/font&gt;" style="rounded=0;whiteSpace=wrap;html=1;fontSize=12;fontColor=#000000;strokeColor=#000000;fillColor=#FFFFFF;verticalAlign=top;" vertex="1" parent="1">
                    <mxGeometry x="-280" y="525" width="120" height="60" as="geometry"/>
                </mxCell>
                <mxCell id="17" value="" style="endArrow=none;startArrow=classic;html=1;fontSize=12;fontColor=#000000;strokeColor=#000000;entryX=0.5;entryY=1;entryDx=0;entryDy=0;exitX=0.5;exitY=0;exitDx=0;exitDy=0;startFill=1;endFill=0;" edge="1" parent="1" source="4" target="15">
                    <mxGeometry width="50" height="50" relative="1" as="geometry">
                        <mxPoint x="-300" y="510" as="sourcePoint"/>
                        <mxPoint x="-250" y="460" as="targetPoint"/>
                    </mxGeometry>
                </mxCell>
                <mxCell id="20" value="" style="endArrow=classic;html=1;fontSize=12;fontColor=#000000;strokeColor=#000000;entryX=0;entryY=0.5;entryDx=0;entryDy=0;exitX=1;exitY=0.5;exitDx=0;exitDy=0;" edge="1" parent="1" source="15" target="13">
                    <mxGeometry width="50" height="50" relative="1" as="geometry">
                        <mxPoint x="-175" y="560" as="sourcePoint"/>
                        <mxPoint x="-125" y="510" as="targetPoint"/>
                    </mxGeometry>
                </mxCell>
                <mxCell id="21" value="" style="group" vertex="1" connectable="0" parent="1">
                    <mxGeometry x="-425" y="670" width="410" height="410" as="geometry"/>
                </mxCell>
                <mxCell id="4" value="New Post Form" style="rounded=0;whiteSpace=wrap;html=1;fillColor=#FFFFFF;fontStyle=1;verticalAlign=top;fontColor=#000000;fontSize=20;strokeColor=#000000;" vertex="1" parent="21">
                    <mxGeometry width="410" height="410" as="geometry"/>
                </mxCell>
                <mxCell id="18" value="Submit Post" style="rounded=1;whiteSpace=wrap;html=1;fontSize=12;fontColor=#000000;strokeColor=#000000;fillColor=#FFFFFF;verticalAlign=top;" vertex="1" parent="21">
                    <mxGeometry x="245" y="370" width="120" height="30" as="geometry"/>
                </mxCell>
                <mxCell id="19" value="Go Back" style="rounded=1;whiteSpace=wrap;html=1;fontSize=12;fontColor=#000000;strokeColor=#000000;fillColor=#FFFFFF;verticalAlign=top;" vertex="1" parent="21">
                    <mxGeometry x="65" y="370" width="120" height="30" as="geometry"/>
                </mxCell>
            </root>
        </mxGraphModel>
    </diagram>
</mxfile>